<?xml version="1.0" standalone="no"?>
<!DOCTYPE svg PUBLIC "-//W3C//DTD SVG 20010904//EN"
 "http://www.w3.org/TR/2001/REC-SVG-20010904/DTD/svg10.dtd">
<svg version="1.0" xmlns="http://www.w3.org/2000/svg"
 width="255.000000pt" height="255.000000pt" viewBox="0 0 255.000000 255.000000"
 preserveAspectRatio="xMidYMid meet">
<metadata>
Created by potrace 1.14, written by Peter Selinger 2001-2017
</metadata>
<g transform="translate(0.000000,255.000000) scale(0.100000,-0.100000)"
fill="#000000" stroke="none">
<path d="M1150 2479 c-274 -31 -519 -148 -711 -339 -292 -289 -409 -652 -345
-1070 23 -149 94 -324 193 -472 58 -88 204 -237 294 -301 138 -98 328 -177
499 -208 87 -16 307 -15 400 1 333 56 632 254 816 537 69 107 141 276 159 373
28 148 32 187 29 305 -5 160 -6 167 -38 289 -107 401 -430 732 -821 842 -153
43 -332 59 -475 43z"/>
</g>
</svg>
